<?xml version="1.0" encoding="UTF-8"?>
<svg id="Layer_1" data-name="Layer 1" xmlns="http://www.w3.org/2000/svg" xmlns:xlink="http://www.w3.org/1999/xlink" viewBox="0 0 269.58367 53.46573">
  <defs>
    <style>
      .cls-1 {
        fill: url(#radial-gradient);
      }

      .cls-2 {
        fill: #e7ebee;
      }
    </style>
    <radialGradient id="radial-gradient" cx="27.52674" cy="26.67514" fx="27.52674" fy="26.67514" r="27.09798" gradientTransform="translate(-.14581 .15551) rotate(-.2739)" gradientUnits="userSpaceOnUse">
      <stop offset="0" stop-color="#da5c62"/>
      <stop offset="1" stop-color="#ca2f75"/>
    </radialGradient>
  </defs>
  <path class="cls-1" d="m42.52434,51.43695l-11.98825-5.44637c-1.03541-.4704-2.23599-.40118-3.21048.18509l-11.28291,6.788c-2.45402,1.47638-5.53571-.50206-5.21485-3.34793l1.47523-13.08452c.12741-1.13009-.30941-2.25052-1.16813-2.99615L1.19257,24.90199c-2.16245-1.87768-1.23314-5.41992,1.57259-5.99418l12.89999-2.64031c1.11416-.22804,2.04476-.98972,2.48854-2.03682l5.13818-12.12354c1.11755-2.63685,4.77359-2.84763,6.18676-.35668l6.4974,11.45272c.56117.98916,1.57315,1.63884,2.70613,1.73733l13.11795,1.14032c2.85314.24802,4.18338,3.65998,2.25104,5.77374l-8.88438,9.71848c-.76733.83937-1.0725,2.00258-.81606,3.11055l2.96916,12.82829c.64579,2.79013-2.18812,5.10963-4.79554,3.92505Z"/>
  <g>
    <path class="cls-2" d="m21.67449,14.62346h17.52686v5.06348h-11.03564v7.72461h8.50391v5.06348h-8.50391v11.68457h-6.49121V14.62346Z"/>
    <path class="cls-2" d="m46.01726,29.25042l-5.77734-.5625c.27393-2.19238,1.20801-3.87988,2.80225-5.06348,1.59375-1.18262,3.60254-1.77344,6.02588-1.77344,2.04834,0,3.69287.39258,4.93359,1.17871s2.02344,1.69824,2.34766,2.7373c.32471,1.03906.48682,2.64746.48682,4.8252v8.7207c0,2.71191.12256,4.32715.36816,4.84668h-5.66846c-.20264-.5918-.30371-1.70898-.30371-3.35352-1.33936,2.53906-3.3335,3.80762-5.98291,3.80762-1.69922,0-3.08105-.50781-4.14697-1.52539-1.06543-1.0166-1.59814-2.49902-1.59814-4.44629,0-2.4375.80615-4.32422,2.41895-5.6582,1.6123-1.33496,4.54932-2.13184,8.81152-2.3916v-.82227c0-1.45703-.14746-2.4668-.44189-3.0293s-.86523-.84375-1.7124-.84375c-1.55078,0-2.40527,1.11816-2.56299,3.35352Zm4.71729,4.47949c-1.77441.20117-3.04053.59375-3.79785,1.17578s-1.13574,1.56348-1.13574,2.94434c0,1.84082.67773,2.76074,2.03369,2.76074.73584,0,1.40283-.41309,2.00195-1.24023.59814-.82715.89795-2.34766.89795-4.5625v-1.07812Z"/>
    <path class="cls-2" d="m58.45916,22.3051h5.86816l3.00732,12.88477,3.04004-12.88477h5.07031l-5.99365,21.85449h-4.8252l-6.16699-21.85449Z"/>
    <path class="cls-2" d="m93.85955,33.23186c0,7.58789-2.95361,11.38184-8.86084,11.38184-5.92188,0-8.88281-3.79395-8.88281-11.38184,0-7.57324,2.96094-11.35938,8.88281-11.35938,5.90723,0,8.86084,3.78613,8.86084,11.35938Zm-6.29688.01074c0-2.78809-.19043-4.67285-.57129-5.65527-.38037-.98242-1.04492-1.47363-1.99268-1.47363-.91992,0-1.58057.46582-1.98291,1.39746s-.60303,2.84277-.60303,5.73145c0,2.67383.17188,4.53027.51709,5.57031.34473,1.04004,1.03418,1.55957,2.06885,1.55957.99072,0,1.66602-.51562,2.0249-1.54883.35938-1.0332.53906-2.89355.53906-5.58105Z"/>
    <path class="cls-2" d="m97.42986,22.3051h5.36621v5.2793c.96631-3.70703,2.69043-5.56055,5.17139-5.56055.30322,0,.64941.03613,1.03857.1084v5.9502c-.44727-.05762-.78613-.08691-1.0166-.08691-2.97217,0-4.45752,2.25098-4.45752,6.75098v9.41309h-6.10205v-21.85449Z"/>
    <path class="cls-2" d="m117.14226,20.50921h-6.18848v-6.03711h6.18848v6.03711Zm-6.14551,1.7959h6.10205v21.85449h-6.10205v-21.85449Z"/>
    <path class="cls-2" d="m122.48699,15.5971l5.92871-.19434v6.90234h4.0249v4.80371h-4.0249v8.02734c0,1.48633.03271,2.44922.09766,2.88867.06494.44043.28125.80859.64893,1.10352.36816.2959.98486.44434,1.8501.44434.46143,0,1.03857-.01465,1.73096-.04395v4.63086c-1.35596.30273-2.59619.4541-3.72168.4541-1.84668,0-3.26025-.35352-4.24121-1.05957-.98096-.70703-1.6084-1.59375-1.88232-2.66211-.27441-1.06738-.41113-2.76172-.41113-5.08496v-8.69824h-2.42334v-4.80371h2.42334v-6.70801Z"/>
    <path class="cls-2" d="m151.98015,34.24944h-11.44678v1.20703c0,1.95508.26562,3.26367.79736,3.9248.53223.66113,1.229.99121,2.0918.99121,1.854,0,2.89648-1.24023,3.12646-3.72168l5.43115.34668c-.96582,5.07812-3.85449,7.61621-8.6665,7.61621-2.96826,0-5.22314-1.00195-6.76465-3.00781-1.54199-2.00488-2.3125-4.6875-2.3125-8.04883,0-3.79395.81787-6.68945,2.45312-8.6875,1.63477-1.99805,3.82861-2.99707,6.58057-2.99707,2.47852,0,4.54932.88379,6.21387,2.65039,1.66406,1.76758,2.49609,5.00879,2.49609,9.72656Zm-5.75586-3.52734c.01416-.25977.02148-.46094.02148-.60547,0-2.81348-.94873-4.21973-2.84521-4.21973-1.86865,0-2.80957,1.6084-2.82373,4.8252h5.64746Z"/>
    <path class="cls-2" d="m169.9616,27.56292l-4.34961,1.29883c-.57715-1.97656-1.64453-2.96484-3.20215-2.96484-1.26953,0-1.9043.63477-1.9043,1.9043,0,.72168.23779,1.26953.71387,1.64453s1.45703.82227,2.94287,1.3418c1.67334.59082,2.89941,1.11035,3.67871,1.55762.77881.44727,1.43506,1.12207,1.96875,2.02344s.80078,1.93652.80078,3.10449c0,2.02051-.72852,3.71484-2.18555,5.08496-1.45703,1.37109-3.49121,2.05566-6.10205,2.05566-4.91895,0-7.64551-2.1709-8.1792-6.5127l4.84717-.7793c.40381,2.17871,1.55029,3.26758,3.44043,3.26758,1.61523,0,2.42334-.67773,2.42334-2.03418,0-.7207-.23779-1.26855-.71387-1.64453-.47607-.375-1.39941-.77832-2.76953-1.21191-2.51025-.80762-4.23438-1.78125-5.17188-2.9209-.93799-1.13965-1.40625-2.45898-1.40625-3.95996,0-2.10547.73877-3.79395,2.21777-5.06348,1.47852-1.26855,3.32861-1.90332,5.55029-1.90332,3.88037,0,6.34717,1.90332,7.40039,5.71191Z"/>
    <path class="cls-2" d="m174.20281,14.62346h10.0835c2.36523,0,4.15039.1875,5.35547.5625,1.2041.375,2.21387,1.19727,3.0293,2.4668.81445,1.26953,1.22217,2.84863,1.22217,4.73828,0,3.30371-1.40625,5.4248-4.21924,6.3623,3.34668,1.18262,5.02002,3.59961,5.02002,7.24902,0,1.91797-.4541,3.53711-1.36328,4.85742-.90869,1.32031-2.03027,2.2002-3.36475,2.63965-1.33447.44043-3.22754.66016-5.67969.66016h-10.0835V14.62346Zm6.23145,11.92285h2.09912c2.09131,0,3.4082-.375,3.94922-1.125.54053-.75.81104-1.6084.81104-2.5752,0-.89453-.27051-1.69141-.81104-2.3916-.54102-.69922-1.69873-1.04883-3.47314-1.04883h-2.5752v7.14062Zm0,12.5498h3.18115c2.98584,0,4.479-1.28711,4.479-3.8623,0-1.43262-.37158-2.44141-1.11426-3.02734-.74316-.58496-1.86475-.87793-3.36475-.87793h-3.18115v7.76758Z"/>
    <path class="cls-2" d="m215.38006,33.23186c0,7.58789-2.95361,11.38184-8.86084,11.38184-5.92188,0-8.88281-3.79395-8.88281-11.38184,0-7.57324,2.96094-11.35938,8.88281-11.35938,5.90723,0,8.86084,3.78613,8.86084,11.35938Zm-6.29688.01074c0-2.78809-.19043-4.67285-.57129-5.65527-.38037-.98242-1.04492-1.47363-1.99268-1.47363-.91992,0-1.58057.46582-1.98291,1.39746s-.60303,2.84277-.60303,5.73145c0,2.67383.17188,4.53027.51709,5.57031.34473,1.04004,1.03418,1.55957,2.06885,1.55957.99072,0,1.66602-.51562,2.0249-1.54883.35938-1.0332.53906-2.89355.53906-5.58105Z"/>
    <path class="cls-2" d="m235.76336,33.23186c0,7.58789-2.95361,11.38184-8.86084,11.38184-5.92188,0-8.88281-3.79395-8.88281-11.38184,0-7.57324,2.96094-11.35938,8.88281-11.35938,5.90723,0,8.86084,3.78613,8.86084,11.35938Zm-6.29688.01074c0-2.78809-.19043-4.67285-.57129-5.65527-.38037-.98242-1.04492-1.47363-1.99268-1.47363-.91992,0-1.58057.46582-1.98291,1.39746s-.60303,2.84277-.60303,5.73145c0,2.67383.17188,4.53027.51709,5.57031.34473,1.04004,1.03418,1.55957,2.06885,1.55957.99072,0,1.66602-.51562,2.0249-1.54883.35938-1.0332.53906-2.89355.53906-5.58105Z"/>
    <path class="cls-2" d="m239.33367,22.3051h5.36621v5.2793c.96631-3.70703,2.69043-5.56055,5.17139-5.56055.30322,0,.64941.03613,1.03857.1084v5.9502c-.44727-.05762-.78613-.08691-1.0166-.08691-2.97217,0-4.45752,2.25098-4.45752,6.75098v9.41309h-6.10205v-21.85449Z"/>
    <path class="cls-2" d="m252.61931,22.3051h6.10205v14.03906c0,1.41504.12988,2.36133.38965,2.83789s.82227.71484,1.68799.71484c.79297,0,1.39551-.19434,1.80664-.58496.41113-.38965.65967-.92773.74658-1.61426.08643-.68555.12988-2.09766.12988-4.23535v-11.15723h6.10156v21.85449h-5.73389v-2.98633c-.86572,1.48633-1.72754,2.43164-2.58594,2.83496s-1.87158.60547-3.04004.60547c-1.57227,0-2.77734-.32422-3.61377-.97363s-1.37744-1.4707-1.62256-2.4668c-.24561-.99512-.36816-2.5459-.36816-4.65234v-14.21582Z"/>
  </g>
</svg>